<svg width="92" height="30" viewBox="0 0 92 30" fill="none" xmlns="http://www.w3.org/2000/svg">
<path fill-rule="evenodd" clip-rule="evenodd" d="M19.9959 8.62939H8.68014V8.63164C8.66444 8.63119 8.64874 8.62939 8.63304 8.62939C8.04535 8.62939 7.56982 9.10447 7.56982 9.69036C7.56982 10.2767 8.04535 10.7513 8.63304 10.7513C8.64874 10.7513 8.66444 10.75 8.68014 10.7491V10.7513H19.9959C20.5836 10.7513 21.0596 10.2767 21.0596 9.69036C21.0596 9.10447 20.5836 8.62939 19.9959 8.62939" fill="#5551F4"/>
<path fill-rule="evenodd" clip-rule="evenodd" d="M19.9959 18.7375H8.68014V18.7398C8.66444 18.7389 8.64874 18.7375 8.63304 18.7375C8.04535 18.7375 7.56982 19.2126 7.56982 19.7985C7.56982 20.3844 8.04535 20.8595 8.63304 20.8595C8.64874 20.8595 8.66444 20.8581 8.68014 20.8572V20.8595H19.9959C20.5836 20.8595 21.0596 20.3844 21.0596 19.7985C21.0596 19.2126 20.5836 18.7375 19.9959 18.7375" fill="#5551F4"/>
<path fill-rule="evenodd" clip-rule="evenodd" d="M17.0235 14.7446C17.0235 14.1914 16.5987 13.7374 16.0568 13.6885V13.6836H6.35417V13.6858C6.33847 13.6854 6.32277 13.6836 6.30707 13.6836C5.71983 13.6836 5.24341 14.1587 5.24341 14.7446C5.24341 15.3309 5.71983 15.806 6.30707 15.806C6.32277 15.806 6.33847 15.8042 6.35417 15.8033V15.806H16.0568V15.8006C16.5987 15.7517 17.0235 15.2977 17.0235 14.7446" fill="#5551F4"/>
<path fill-rule="evenodd" clip-rule="evenodd" d="M13.1515 1.97367C13.0003 1.97367 12.8492 2.0127 12.7141 2.09031L2.41129 8.03891C2.14167 8.19457 1.97434 8.48438 1.97434 8.79571V20.6934C1.97434 21.0042 2.14167 21.2945 2.41129 21.4502L12.7146 27.3988C12.9837 27.554 13.3184 27.5544 13.5885 27.3988L23.8913 21.4502C24.1614 21.2945 24.3287 21.0042 24.3287 20.6934V8.79571C24.3287 8.48438 24.1614 8.19457 23.8917 8.03936L13.5885 2.09031C13.4534 2.01225 13.3027 1.97367 13.1515 1.97367M13.1515 29.4888C12.6589 29.4888 12.1668 29.3623 11.7272 29.1089L1.42345 23.1598C0.545064 22.6529 0 21.7077 0 20.6934V8.79571C0 7.7814 0.545064 6.83618 1.42345 6.3288L11.7272 0.380199C12.6056 -0.126733 13.697 -0.126733 14.5759 0.380199L24.8791 6.3288C25.7575 6.83618 26.303 7.7814 26.303 8.79571V20.6934C26.303 21.7077 25.7575 22.6529 24.8791 23.1603L14.5759 29.1084C14.1362 29.3623 13.6441 29.4888 13.1515 29.4888" fill="#5551F4"/>
<path d="M48.5173 18.8982V20.7444H41.3459V18.8982H48.5173ZM42.0046 7.23657V20.7444H39.676V7.23657H42.0046ZM47.5803 12.8772V14.6956H41.3459V12.8772H47.5803ZM48.4709 7.23657V9.09204H41.3459V7.23657H48.4709ZM51.3655 7.23657H53.4436L57.3494 17.655L61.2458 7.23657H63.324L58.1658 20.7444H56.5144L51.3655 7.23657ZM50.4192 7.23657H52.3953L52.7385 16.2542V20.7444H50.4192V7.23657ZM62.2942 7.23657H64.2795V20.7444H61.9509V16.2542L62.2942 7.23657ZM74.197 18.9446L77.7502 21.7649L76.238 23.0916L72.7498 20.2991L74.197 18.9446ZM77.7781 13.6194V14.3616C77.7781 15.3821 77.6451 16.2974 77.3792 17.1077C77.1132 17.9179 76.7328 18.6075 76.238 19.1765C75.7432 19.7455 75.1526 20.1816 74.4661 20.4846C73.7795 20.7815 73.0188 20.9299 72.1838 20.9299C71.3551 20.9299 70.5974 20.7815 69.9109 20.4846C69.2306 20.1816 68.6399 19.7455 68.1389 19.1765C67.6379 18.6075 67.2483 17.9179 66.97 17.1077C66.6978 16.2974 66.5618 15.3821 66.5618 14.3616V13.6194C66.5618 12.5989 66.6978 11.6866 66.97 10.8826C67.2421 10.0723 67.6256 9.38273 68.1204 8.81372C68.6213 8.23853 69.212 7.80249 69.8923 7.50562C70.5789 7.20256 71.3365 7.05103 72.1653 7.05103C73.0002 7.05103 73.761 7.20256 74.4475 7.50562C75.1402 7.80249 75.734 8.23853 76.2288 8.81372C76.7236 9.38273 77.1039 10.0723 77.3699 10.8826C77.642 11.6866 77.7781 12.5989 77.7781 13.6194ZM75.4402 14.3616V13.6008C75.4402 12.8463 75.366 12.1814 75.2175 11.6062C75.0753 11.0248 74.8619 10.5393 74.5774 10.1497C74.2991 9.75382 73.9558 9.45695 73.5476 9.25903C73.1456 9.05493 72.6848 8.95288 72.1653 8.95288C71.6581 8.95288 71.2035 9.05493 70.8015 9.25903C70.3995 9.45695 70.0562 9.75382 69.7717 10.1497C69.4872 10.5393 69.2708 11.0248 69.1223 11.6062C68.9739 12.1814 68.8997 12.8463 68.8997 13.6008V14.3616C68.8997 15.1161 68.9739 15.7841 69.1223 16.3655C69.2708 16.9469 69.4872 17.4386 69.7717 17.8406C70.0624 18.2364 70.4088 18.5364 70.8108 18.7405C71.219 18.9384 71.6767 19.0374 72.1838 19.0374C72.7034 19.0374 73.1641 18.9384 73.5662 18.7405C73.9682 18.5364 74.3083 18.2364 74.5867 17.8406C74.865 17.4386 75.0753 16.9469 75.2175 16.3655C75.366 15.7841 75.4402 15.1161 75.4402 14.3616ZM81.9158 7.23657L84.7825 12.1628L87.6492 7.23657H90.3303L86.2483 13.9255L90.4324 20.7444H87.7234L84.7825 15.7253L81.8416 20.7444H79.1233L83.3167 13.9255L79.2253 7.23657H81.9158Z" fill="#5551F4"/>
</svg>
