<svg width="48" height="48" viewBox="0 0 48 48" fill="none" xmlns="http://www.w3.org/2000/svg">
<path fill-rule="evenodd" clip-rule="evenodd" d="M38.434 11.027H14.4271V11.0322C14.394 11.0305 14.3612 11.027 14.3276 11.027C13.0812 11.027 12.0712 12.0349 12.0712 13.2782C12.0712 14.5211 13.0812 15.529 14.3276 15.529C14.3612 15.529 14.394 15.5256 14.4271 15.5243V15.529H38.434C39.6804 15.529 40.6904 14.5211 40.6904 13.2782C40.6904 12.0349 39.6804 11.027 38.434 11.027" fill="#5E4EFF"/>
<path fill-rule="evenodd" clip-rule="evenodd" d="M38.434 32.4709H14.4271V32.4757C14.394 32.4744 14.3612 32.4709 14.3276 32.4709C13.0812 32.4709 12.0712 33.4789 12.0712 34.7222C12.0712 35.965 13.0812 36.973 14.3276 36.973C14.3612 36.973 14.394 36.9695 14.4271 36.9682V36.973H38.434C39.6804 36.973 40.6904 35.965 40.6904 34.7222C40.6904 33.4789 39.6804 32.4709 38.434 32.4709" fill="#5E4EFF"/>
<path fill-rule="evenodd" clip-rule="evenodd" d="M32.1267 24C32.1267 22.8261 31.2252 21.8635 30.0759 21.7591V21.7488H9.49155V21.754C9.45835 21.7527 9.42559 21.7488 9.39196 21.7488C8.14564 21.7488 7.13513 22.7567 7.13513 24C7.13513 25.2433 8.14564 26.2512 9.39196 26.2512C9.42559 26.2512 9.45835 26.2474 9.49155 26.2461V26.2512H30.0759V26.2409C31.2252 26.137 32.1267 25.1739 32.1267 24" fill="#5E4EFF"/>
</svg>
