<?xml version="1.0" encoding="utf-8"?>
<!-- Generator: Adobe Illustrator 21.0.0, SVG Export Plug-In . SVG Version: 6.00 Build 0)  -->
<svg version="1.1" id="图层_1" xmlns="http://www.w3.org/2000/svg" xmlns:xlink="http://www.w3.org/1999/xlink" x="0px" y="0px"
	 viewBox="0 0 391 134" style="enable-background:new 0 0 391 134;" xml:space="preserve">
<style type="text/css">
	.st0{fill-rule:evenodd;clip-rule:evenodd;fill:#DE2525;}
	.st1{fill:#DE2525;}
	.st2{fill:#C8C9CA;}
</style>
<g>
	<g>
		<path class="st0" d="M149.749,91.232c0,0-1.935,0.226-2.613,0.226c-0.688,0-3.301-0.57-3.301-0.57s-2.387-0.344-2.161,0.344
			c0.226,0.677,1.828,2.376,2.054,2.828c0.215,0.452,1.366,4.086,1.817,4.548c0.452,0.452,3.527,3.742,4.43,4.075
			c0.914,0.344,2.161,0,2.387-0.903c0.226-0.903,0.021-3.14-0.108-3.752c-0.462-2.043-2.505-2.828-2.505-3.516V91.232z"/>
		<path class="st0" d="M196.026,74.33c0,0,1.602,3.849,1.032,5.225c-0.57,1.355-1.935,3.172-3.645,3.279
			c-0.796,0.054-3.29-0.108-3.752,0.226c-0.452,0.344-2.269,2.269-1.817,2.72c0.452,0.452,2.613-0.559,3.634-0.333
			c1.021,0.226,4.666-0.118,5.118,0.108c0.462,0.226,6.032,1.355,6.602,1.258c0.559-0.118,1.129-0.462,1.473-0.914
			c0.344-0.452,0.677-2.494,1.14-2.946c0.452-0.462-0.226-5.118-1.258-5.559c-1.021-0.452-6.247-2.387-6.483-3.064
			C197.854,73.653,196.026,74.33,196.026,74.33z"/>
		<path class="st0" d="M240.503,34.943c0,1.473,1.14,2.269,1.258,2.839s2.043,2.602,2.613,3.054c0.57,0.452,2.505,1.484,2.957,1.817
			c0.462,0.344,3.871,0.677,4.548,0.581c0.688-0.118,3.075-1.484,3.645-1.602c0.57-0.108,1.473-1.806,1.247-2.387
			c-0.226-0.559-3.978-4.075-4.774-4.301c-0.796-0.226-5-2.376-6.032-2.602c-1.021-0.226-2.613-0.118-3.408-0.118
			C241.761,32.223,240.503,34.943,240.503,34.943z"/>
		<path class="st0" d="M258.028,71.585c0.559,0.796,1.247,3.752,0.903,4.645c-0.344,0.914-2.161,4.43-2.731,5
			c-0.57,0.559-2.613,1.925-3.634,2.269c-1.021,0.344-1.817,1.355-2.623,1.355c-0.796,0-1.473,0.226-1.699-0.226
			c-0.226-0.452-0.677-2.613-0.677-2.613s0.333-1.699-0.452-1.473c-0.806,0.237-0.914,1.247-0.914,1.247s-0.688,0.118-1.14-0.226
			c-0.452-0.333-0.796-0.677,0-1.473c0.796-0.796,3.634-3.86,4.204-4.656s3.408-5.215,3.978-5.322
			c0.57-0.118,1.365,0.785,2.279,0.903S257.458,70.79,258.028,71.585z M275.307,44.921c-0.344-0.441-3.064-1.806-3.527-2.269
			c-0.452-0.452-0.903-1.366-1.817-1.462c-0.914-0.118-4.086,0.333-4.774,0.559c-0.688,0.226-6.602,1.935-7.279,2.161
			c-0.677,0.215-7.967,2.043-8.645,2.376c-0.677,0.344-7.053,3.29-7.849,3.516c-0.796,0.226-7.387,2.946-9.204,3.183
			c-1.817,0.215-4.215,2.043-5.236,1.925c-1.021-0.108-0.796,0.688-2.043,0.688c-1.247,0-2.279-0.118-2.957-0.355
			c-0.677-0.215-1.473,1.021-2.054,1.365c-0.559,0.344-2.269,0.462-2.387,1.021c-0.108,0.57-1.473,1.14-1.247,1.71
			c0.226,0.559,1.021,1.355,0.914,1.925c-0.118,0.559-0.118,1.688-0.118,1.688s1.14,2.957,2.161,3.645
			c1.021,0.677,2.731,1.817,4.204,1.817c1.484,0,5-2.387,5.462-3.064c0.452-0.677,4.774-4.656,5.01-5.225
			c0.226-0.559,1.581-1.925,1.699-2.376c0.118-0.462,1.935-1.365,2.505-2.15c0.57-0.796,3.29-1.946,3.86-2.279
			s2.957-2.613,3.752-2.957c0.796-0.333,1.258,0,1.935-0.333c0.677-0.333,1.591-1.129,2.043-0.903
			c0.462,0.226,0.914,0.452,0.914,0.452s2.161-1.925,2.731-2.043s2.269-0.226,2.269-0.226s0.344,1.021,0.806,0.796
			c0.452-0.226,0.559-1.699,1.14-2.043c0.559-0.344,1.581-0.226,1.581-0.226s1.14-0.677,1.591-0.796
			c0.452-0.118,0.796,0.452,1.247,0.452c0.462,0,1.032-1.129,1.602-1.011c0.559,0.097,0.333,0.903,1.129,1.011
			c0.796,0.118,1.15-0.785,1.591-0.57c0.462,0.237,1.032,0.344,0.57,0.796c-0.452,0.452-2.043,1.817-2.731,2.043
			c-0.677,0.226-1.462,0.677-2.269,1.473c-0.796,0.796-3.634,2.269-3.978,2.72c-0.333,0.452-1.817,1.484-2.505,1.484
			c-0.677,0-1.817-0.355-1.935,0.215c-0.108,0.581,0.226,1.15,0,1.946c-0.226,0.785-1.817,3.172-2.043,3.849
			c-0.226,0.677-2.279,5.225-2.613,5.666c-0.344,0.452-2.957,5.225-3.408,5.677c-0.462,0.452-2.731,3.516-3.075,3.967
			c-0.344,0.462-2.957,3.172-3.634,3.967c-0.688,0.796-2.731,3.064-3.193,3.408c-0.452,0.344-3.634,3.408-3.634,3.408
			s-0.677,0.677,0.226,0.677c0.914,0,2.279-0.452,2.849-0.677c0.559-0.237,2.72-1.14,3.29-1.591c0.57-0.452,2.054-2.387,2.731-2.387
			c0.677,0,1.591-0.441,1.817,0c0.237,0.452,1.14,1.247,1.14,1.817s0.108,2.72,0.226,3.408c0.118,0.677,0.796,1.699,1.817,2.043
			c1.032,0.333,1.15,1.021,1.828,1.021c0.677,0,1.14-0.581,2.494,0c1.365,0.559,2.505,1.247,3.752,1.021
			c1.247-0.237,4.666-1.935,5.236-2.613s3.419-2.839,3.978-3.634c0.57-0.785,2.387-2.72,2.505-3.505
			c0.118-0.806,1.247-2.849,1.365-3.86c0.108-1.032,0.108-3.871-0.118-4.656c-0.226-0.796-1.021-3.516-2.505-4.763
			c-0.742-0.634-3.183-3.29-3.978-3.527c-0.796-0.226-3.29-1.247-3.752-1.806c-0.452-0.57,1.14-2.839,1.484-3.978
			c0.333-1.129,0.903-2.032,0.677-2.494c-0.226-0.441-0.796-0.796-0.677-1.355c0.108-0.57,1.14-1.699,2.15-2.279
			c1.021-0.559,3.645-1.806,4.559-2.043c0.914-0.215,2.494-0.333,3.183-0.452c0.677-0.108,3.183-0.108,3.86-0.452
			c0.688-0.333,2.505-1.806,2.731-2.258C274.963,46.738,275.651,45.383,275.307,44.921z"/>
		<path class="st0" d="M337.544,67.292c0,0-2.839,0.946-3.774,0c-0.312-0.419,0.14-3.043,0.14-3.043s1.505-1.72,1.473-2.602
			c-0.032-1.538-0.699-3.505-1.129-4.075c-0.441-0.581-1.796-1.742-1.796-1.742l0.29-4.645c0,0,1.892-1.011,2.763-1.011
			s1.021,0.441,1.161,1.441c0.151,1.032,0.581,6.387,0.731,7.548c0.14,1.172,0.43,6.387,0.43,7.118
			C337.834,67.002,337.544,67.292,337.544,67.292z M325.47,60.336c-0.656,1.548-3.333,3.032-3.333,3.032s1.15,1.021,1.731,1.892
			c0.591,0.871,0.301,1.312-0.28,2.183c-0.581,0.871-0.366,2.376-1.161,2.15c0,0-0.645-2.301-0.796-3.172
			c-0.151-0.882,0.204-4.053,0.204-4.053s-0.323-2.183,0.151-3.785c0,0,0.323-2.107,0.323-2.828c0-0.72,0.806-3.978,1.602-4.096
			c0,0,0.796,0.462,0.903,1.946c0.108,1.29,0.226,1.064,0.656,2.365C325.91,57.282,325.76,59.658,325.47,60.336z M361.112,89.065
			c-1.021-0.29-4.656-0.731-6.548-0.591c-1.892,0.151-5.817-0.14-6.978,0.151c-1.172,0.29-6.268,1.484-6.849,1.043
			c-0.581-0.419,2.333-5.828,2.914-6.688c0.581-0.882,1.021-4.086,1.312-5.096c0.301-1.011,0.441-4.935,0.731-6.086
			c0.29-1.161-0.441-8.677-0.301-9.688c0.151-1.021-0.43-8.602-0.581-9.182c-0.14-0.581-1.742-6.096-2.172-6.817
			c-0.43-0.72-1.892-1.602-2.473-2.333c-0.581-0.71-2.043-1.581-2.914-1.731s-2.322,0.559-2.322,0.559s-1.688-0.828-2.269-0.688
			c-0.581,0.14-1.806,1.86-2.677,2.011c-0.882,0.151-2.322-1.011-2.322-1.011s1.742-3.774,1.882-4.344
			c0.151-0.591,2.183-3.064,3.204-4.365c1.021-1.301,3.204-4.494,3.204-4.494s0.677-1.161,0.57-1.753
			c-0.172-1.054-1.29-2.699-2.15-3.849c-0.882-1.172-4.484-1.107-5.344-1.247c-0.882-0.151-0.796-1.279-1.957-1.57
			c-1.161-0.301-4.29,4.01-4.871,4.742c-0.581,0.731-2.688,0.914-3.989,1.495c-1.323,0.581-4.376,1.742-5.387,2.032
			c-1.021,0.29-1.753,2.322-2.043,2.903c-0.29,0.581,3.634,8.279,3.935,8.849c0.29,0.581,0.871,0,2.752,0.151
			c1.903,0.14,1.602-0.441,1.602-0.441s0.581,0.441,0.301,1.312c-0.301,0.86-2.774,9.429-3.204,10.591
			c-0.441,1.161-1.161,6.537-1.452,7.688c-0.301,1.172,0.29,6.967,0.14,8.569c-0.14,1.591-0.376,2.774-0.957,3.365
			c-0.581,0.57,0.258,2.785,0.108,3.505c-0.14,0.731,1.581,0.817,1.72,1.548c0.14,0.72,2.376,2.785,2.333,3.623
			c-0.065,1.075,0.946,3.172,2.537,3.451c1.613,0.29,2.839-0.108,3.709-0.548c0.871-0.441,1.021-1.15,1.021-2.032
			c0-0.871-0.29-3.043-0.871-3.634c-0.591-0.581-0.151-1.441-0.151-1.441l2.473,0.419l0.441,2.193l0.29,5.354
			c0,0,1.688-0.699,2.473-1.011c1.086-0.43,2.322-1.452,3.054-1.882s1.312-2.613,1.021-3.634c-0.29-1.021,1.011-4.053,1.011-4.053
			s1.462-1.021,2.183-0.882c0.731,0.151,0.29,1.742,0.29,2.623c0,0.871-1.366,6.483-1.452,7.397
			c-0.14,1.484-1.656,2.021-2.527,2.613c-0.871,0.581-0.204,2.269,0.204,2.903c0.828,1.29,0.14,2.086,0.14,2.086
			s-2.441,0.258-3.752,0.118c-1.312-0.151-4.978-0.462-6.29-0.613c-1.301-0.151-5.806-2.462-7.698-3.183
			c-1.892-0.731-5.946-0.935-6.817-1.656c-0.871-0.72,1.473-3.494,1.473-4.656c0-1.161-0.183-2.699-1.785-4.29
			c-1.602-1.602-1.021-3.193-1.021-4.494c0-1.312-0.72-4.645-1.591-5.666c-0.882-1.011-2.451-4.441-3.204-5.075
			c-1.495-1.236-1.602-3.484-3.204-5.957c-1.505-2.312-1.602-5.656-1.742-7.107c-0.151-1.452,2.032-2.613,2.763-2.892
			c0.731-0.29,1.011-2.043,1.011-2.763c0-0.72-2.172-2.322-2.172-2.322s-2.226-1.247-2.806-1.968
			c-0.591-0.72-4.322-3.634-5.785-3.838c0,0-0.72,2.613-0.581,3.344c0.151,0.72,1.021,2.172,1.021,3.054
			c0,0.86,1.161,2.451,1.021,3.903c-0.14,1.452,1.161,3.484,1.452,4.645c0.29,1.161,1.021,3.484,1.161,4.355
			c0.151,0.871,0.462,2.365,0.688,3.484c0.269,1.398,1.785,2.763,1.785,2.763s0.441,3.193,0.441,4.355
			c0,1.15,2.183,6.376,2.473,7.548c0.29,1.15,2.473,5.516,2.473,6.376c0,0.871-2.29,3.57-3.785,3.763
			c-0.839,0.118-3.344,0.731-4.365,0.731c-1.011,0-2.322,1.882-2.903,2.613c-0.581,0.731-0.151,2.613,0.441,3.785
			c0.581,1.15,1.957,3.215,3.344,3.763c1.226,0.484,3.634,0,4.935-0.14c1.322-0.151,5.967-0.301,8.741-0.151
			c2.753,0.151,3.623,0.29,5.656,0.871c2.043,0.591,3.785,1.301,5.236,2.032c1.462,0.731,3.935,0.731,5.247,0.581
			c1.301-0.14,3.924-0.29,5.086-0.441c1.161-0.14,4.656-0.581,5.967-0.871c1.301-0.29,4.064-1.021,6.537-0.86
			c2.473,0.151,7.279-1.602,9.021-1.753c1.742-0.14,2.322-0.29,4.656-0.43c2.322-0.14,2.763-0.871,3.634-1.011
			c0.871-0.151,4.215-0.882,4.215-0.882S362.123,89.355,361.112,89.065z"/>
		<path class="st0" d="M196.262,38.816c-0.237,1.247-1.484,4.193-1.71,4.656c-0.226,0.452-1.817,0.914-2.161,0.452
			c-0.344-0.452-3.527-1.011-5.236-0.785c-0.785,0.097-3.29,1.247-4.322,1.581c-1.021,0.344-3.634,1.365-4.086,1.71
			c-0.452,0.333-1.731-0.108-2.161-0.796c-0.57-0.914-0.108-2.72,0-4.204c0.118-1.473,0.344-2.957,0.796-3.408
			c0,0,2.279-1.021,2.839-1.236c0.57-0.237,3.752-1.258,4.548-1.484c0.796-0.215,3.871-0.677,6.15-1.355
			c1.452-0.43,3.634,0.333,4.548,0.57C196.37,34.731,196.488,37.58,196.262,38.816z M189.886,53.116
			c-0.333,0.677-1.591,2.269-1.699,2.946c-0.118,0.688-1.14,1.71-1.591,2.15c-0.462,0.462-2.398,0.118-2.957,0.237
			c-0.57,0.108-0.806,2.043-1.258,2.602c-0.452,0.57-2.494,1.258-3.183,1.699c-0.677,0.452-2.387,0.699-3.408,0.699
			s-1.247-2.398-1.247-3.193c0-0.796,0.452-2.484,0.796-3.505c0.333-1.032,3.183-2.279,3.183-2.279s3.86-2.15,4.43-2.602
			c0.57-0.452,2.279-1.15,3.408-1.484c1.15-0.333,2.505-0.559,3.075-0.108C190.005,50.719,190.231,52.428,189.886,53.116z
			 M171.576,44.945c-0.215,0.688-0.215,2.839-0.452,3.516c-0.226,0.677,0.237,1.699-0.914,2.161
			c-0.516,0.204-1.925,0.452-2.376,0.677c-0.462,0.215-1.365,1.699-1.71,2.161c-0.344,0.452-2.839,1.473-3.527,1.699
			s-2.043,0.559-3.075,0.452c-1.021-0.108-1.473-2.494-2.043-3.527c-0.57-1.011-0.344-3.387-0.344-3.387s2.613-1.71,3.075-2.161
			c0.452-0.452,4.43-2.72,5.118-3.183c0.688-0.441,2.839-2.043,2.839-2.043s0.914-0.452,1.71-0.559
			c0.796-0.118,1.591,0.333,1.699,0.796C171.694,41.999,171.812,44.268,171.576,44.945z M167.264,67.632
			c-0.688,0.43-2.623,1.366-3.537,1.473c-0.903,0.118-2.269-0.677-2.72-1.247c-0.452-0.559,0.344-2.494,0.452-3.064
			c0.118-0.559,1.935-2.043,2.269-2.484c0.355-0.462,1.946-0.925,1.946-0.925s2.043-0.677,2.376-0.215
			c0.344,0.452,0.462,2.279,0.462,3.172C168.512,65.255,168.512,66.836,167.264,67.632z M201.262,30.881
			c-0.677-0.333-0.903-1.581-3.634-2.279c-2.742-0.677-5.924,0.237-7.053,0.452c-1.14,0.247-3.301,1.15-4.096,1.376
			c-0.796,0.226-1.71,0.677-2.279,0.677c-0.559,0-1.247,1.247-2.043,1.591c-0.796,0.344-0.903,0.344-2.839,0.108
			c-1.935-0.215-1.591-0.785-1.591-1.473c0-0.677-0.344-1.925-0.344-2.494s0.226-1.129,0.344-1.591
			c0.108-0.452,3.408-1.935,4.43-2.387c1.021-0.452,1.591-0.215,2.043-0.333c0.462-0.118,2.742-1.817,2.742-1.817
			s-0.118-0.785-0.581-1.355c-0.452-0.57-2.043-1.365-3.183-1.591c-1.129-0.226-2.839,0-3.408,0c-0.57,0-1.365-0.57-1.935-0.796
			c-0.57-0.226-1.935-1.247-2.613-1.021c-0.677,0.237-0.796,2.376-0.796,2.839c0,0.452-2.054,2.032-2.054,2.032
			s-1.011,0.237-1.473,0.57c-0.452,0.344-1.247,1.365-1.817,1.817s-2.387,1.591-3.408,2.269c-1.032,0.677-2.623,1.365-2.957,2.505
			c-0.344,1.129,2.043,0.796,2.043,0.796s1.71-0.344,2.387-0.344c0.688,0,2.731-1.247,3.978-1.591
			c1.247-0.333,1.365,0.677,1.484,1.247c0.108,0.57,0.333,4.645,0.108,5.107c-0.226,0.452-0.344,1.129-0.677,1.591
			c-0.344,0.441-1.828,1.806-2.731,2.258c-0.914,0.462-2.494,1.366-3.527,1.817c-1.021,0.452-3.183,2.054-3.183,2.054
			s-1.935,0.785-2.505,1.129s-3.634,2.15-4.193,2.387c-0.581,0.215-4.226-0.796-5.129-0.237c0,0-0.677,1.699-1.247,2.15
			c-0.57,0.452-1.032,1.365-1.032,1.817c0,0.462-0.108,2.839,0,4.086c0.118,1.258,1.71,6.129,1.946,7.709
			c0.226,1.591,1.699,5.57,2.15,7.612c0.462,2.043,2.054,4.301,2.505,5.548c0.462,1.247,2.505,2.839,3.301,3.408
			c0.796,0.57,1.699-0.452,2.161-0.452c0.452,0,2.269-0.118,3.064-0.677c0.806-0.57,3.527-3.183,4.892-2.613
			c1.366,0.57,1.817,3.967,1.935,5.215c0.108,1.247,0.452,3.978-0.237,4.989c-0.677,1.032-3.398,0.237-3.183,0.688
			c0.237,0.452,1.71,2.72,2.054,3.172c0.344,0.462,1.366,2.043,2.043,2.269c0.688,0.226,3.075,3.527,3.752,3.645
			c0.677,0.097,0.677-0.355,1.021-0.796c0.344-0.462,1.14,0.333,1.71,0.097c0.57-0.215,1.021-2.15,0.914-2.828
			c-0.118-0.688-0.688-2.505-1.258-3.29c-0.559-0.796-1.365-4.204-1.591-5.215c-0.226-1.021-1.247-4.204-1.473-4.656
			s0.452-2.043,0.118-3.967c-0.344-1.935,0.677-2.387,1.129-2.613s5.236-2.613,5.688-2.946c0.452-0.344,1.473,0,2.043-0.118
			c0.57-0.108,1.021-0.452,1.484-0.677c0.452-0.226,2.957-1.591,3.408-1.591c0.462,0,1.484-0.903,1.71-1.129
			c0.226-0.237,0.226-2.613,0.796-3.86c0.43-0.957,1.817-2.387,2.161-3.29c0.333-0.914,1.699-3.516,2.15-4.086
			c0.462-0.559,2.623-4.656,3.075-5.451c0.462-0.785,2.054-3.505,2.623-4.645c0.559-1.14,2.269-4.656,2.72-5.107
			c0.452-0.452,0.452-2.839,0.57-3.967C203.993,33.483,201.939,31.226,201.262,30.881z"/>
	</g>
	<g>
		<polygon class="st1" points="57.29,51.602 57.29,51.602 57.29,51.602 		"/>
		<path class="st1" d="M57.29,52.826v-0.945v-0.278v-0.001h-7.608c-1.62,0-1.598,1.248-1.598,1.248v1.889
			c0,0,2.904,0.203,2.904,3.459V76.56c0,1.144-0.034,1.917-0.099,2.317c-0.065,0.402-0.211,0.813-0.441,1.238
			c-0.31,0.538-0.784,0.981-1.421,1.324c-0.264,0.143-0.716,0.251-1.154,0.33c-1.102,0-1.209,1.154-1.209,1.154l-0.004,2.143h15.148
			V82.86c0-0.736-0.25-0.875-0.659-0.946c-1.047-0.181-1.927-0.413-2.598-1.013c-0.49-0.442-0.817-0.94-0.98-1.497
			c-0.165-0.554-0.246-1.462-0.246-2.72v-1.85V60.031l-0.036-0.07V52.826z"/>
		<polygon class="st1" points="85.654,52.826 84.954,52.826 84.372,53.921 85.656,53.921 		"/>
		<polygon class="st1" points="74.681,72.147 74.425,71.649 63.254,71.649 63.813,72.744 71.708,72.744 78.771,72.744 
			79.339,71.649 74.945,71.649 		"/>
		<polygon class="st1" points="73.776,70.39 73.211,69.294 62.053,69.294 62.612,70.39 71.607,70.39 		"/>
		<polygon class="st1" points="71.671,68.036 72.563,68.036 72.002,66.946 60.855,66.946 61.411,68.036 		"/>
		<polygon class="st1" points="79.366,63.334 83.651,63.334 84.221,62.235 79.951,62.235 		"/>
		<path class="st1" d="M78.115,65.687h4.316l0.567-1.093c-1.177-0.001-2.651-0.001-4.301-0.001L78.115,65.687z"/>
		<polygon class="st1" points="76.866,68.036 81.213,68.036 81.778,66.946 77.446,66.946 		"/>
		<polygon class="st1" points="75.614,70.39 79.991,70.39 80.56,69.294 76.197,69.294 		"/>
		<polygon class="st1" points="57.326,52.826 57.326,53.921 65.295,53.921 64.73,52.826 		"/>
		<path class="st1" d="M57.326,55.181v1.098c0.379-0.001,4.331-0.001,9.182-0.001l-0.565-1.097H57.326z"/>
		<path class="st1" d="M57.326,57.538v1.083c0.4-0.001,4.996-0.002,10.388-0.002l-0.557-1.081H57.326z"/>
		<polygon class="st1" points="70.142,63.334 69.576,62.235 58.451,62.235 59.012,63.334 		"/>
		<polygon class="st1" points="71.354,65.687 70.79,64.592 59.654,64.592 60.212,65.687 		"/>
		<polygon class="st1" points="68.929,60.978 68.362,59.878 57.326,59.878 57.326,59.96 57.326,60.031 57.81,60.978 		"/>
		<polygon class="st1" points="64.244,51.881 64.1,51.602 61.809,51.602 57.326,51.602 57.326,51.881 		"/>
		<polygon class="st1" points="66.211,77.444 71.631,77.444 76.333,77.444 76.899,76.354 65.655,76.354 		"/>
		<polygon class="st1" points="85.491,51.817 85.652,51.817 85.652,51.602 85.605,51.602 		"/>
		<polygon class="st1" points="68.613,82.151 71.626,82.151 73.891,82.151 74.456,81.063 68.058,81.063 		"/>
		<polygon class="st1" points="70.1,85.066 72.38,85.066 73.239,83.41 69.255,83.41 		"/>
		<path class="st1" d="M85.659,55.181h-1.957l-0.584,1.097c1.505,0.001,2.45,0.001,2.543,0.001L85.659,55.181z"/>
		<polygon class="st1" points="81.204,59.878 80.619,60.978 84.874,60.978 85.444,59.878 85.425,59.878 		"/>
		<polygon class="st1" points="65.012,75.095 71.633,75.095 77.552,75.095 78.118,74.001 64.455,74.001 		"/>
		<polygon class="st1" points="67.416,79.805 71.659,79.805 75.108,79.805 75.681,78.701 66.852,78.701 		"/>
		<polygon class="st1" points="57.29,51.881 57.326,51.881 57.326,51.602 57.29,51.602 57.29,51.602 		"/>
		<path class="st1" d="M57.326,59.878H57.29v-1.258c0.005,0,0.025,0,0.036,0v-1.083H57.29v-1.258c0.005,0,0.024,0,0.036,0v-1.098
			H57.29v-1.26h0.036v-1.096H57.29v7.135l0.036,0.07v-0.07V59.878z"/>
		<rect x="57.29" y="51.881" class="st1" width="0.036" height="0.945"/>
		<rect x="57.29" y="53.921" class="st1" width="0.036" height="1.26"/>
		<path class="st1" d="M57.29,56.279v1.258h0.036v-1.258C57.315,56.279,57.295,56.279,57.29,56.279z"/>
		<path class="st1" d="M57.29,58.621v1.258h0.036v-1.258C57.316,58.621,57.295,58.621,57.29,58.621z"/>
		<polygon class="st1" points="85.444,59.878 85.664,59.878 85.664,59.452 		"/>
		<path class="st1" d="M85.663,57.538h-3.215l-0.575,1.082c2.246,0,3.714,0,3.791,0.001v-0.58L85.663,57.538z"/>
		<path class="st1" d="M65.432,23.017c-25.004,0-45.274,20.289-45.274,45.317c0,25.028,20.27,45.317,45.274,45.317
			s45.273-20.289,45.273-45.317C110.705,43.306,90.436,23.017,65.432,23.017z M85.679,78.701v-0.006V78.701z M85.652,51.602h0.029
			v7.82l-0.001,0.002v0.454h-0.015v16.809c0,1.162-0.034,1.946-0.1,2.353c-0.066,0.408-0.214,0.825-0.447,1.257
			c-0.315,0.547-0.796,0.996-1.444,1.344c-0.268,0.145-0.726,0.255-1.171,0.335c-1.119,0-1.227,1.171-1.227,1.171l-0.004,2.176
			h9.273c-6.17,12.019-18.67,20.247-33.099,20.247c-20.545,0-37.201-16.672-37.201-37.237s16.656-37.237,37.201-37.237
			c16.369,0,26.929,8.228,33.099,20.247c-3.614,0-4.177,0-4.892,0L85.652,51.602z"/>
		<path class="st1" d="M85.679,51.817v1.009h-0.025l0.002,1.096h0.023v1.26h-0.02l0.002,1.098c0.005,0,0.018,0,0.018,0v1.258h-0.016
			l0.001,0.503v0.58h0.015v0.769v0.034l0.001-0.002v-7.82h-0.029l0.001,0.215H85.679z"/>
		<rect x="85.653" y="51.817" class="st1" width="0.026" height="1.009"/>
		<rect x="85.658" y="53.921" class="st1" width="0.022" height="1.26"/>
		<path class="st1" d="M85.679,57.538v-1.258c0,0-0.013,0-0.018,0l0.003,1.258H85.679z"/>
		<polygon class="st1" points="85.664,59.878 85.679,59.878 85.679,59.424 85.664,59.452 		"/>
		<polygon class="st1" points="85.664,59.418 85.664,59.452 85.679,59.424 85.679,59.39 		"/>
		<polygon class="st1" points="85.679,59.39 85.679,58.621 85.664,58.621 85.664,59.418 		"/>
	</g>
	<g>
		<polygon class="st2" points="221.666,102.787 220.994,104.618 228.37,104.618 228.299,104.811 224.089,116.456 228.489,116.456 
			232.77,104.618 240.115,104.618 240.786,102.787 		"/>
		<path class="st2" d="M247.065,106.194c-3.042,0-5.536,0.553-7.413,1.639c-1.86,1.077-3.067,2.356-3.592,3.804
			c-0.519,1.432-0.272,2.617,0.757,3.626c1.052,1.038,3.11,1.565,6.117,1.565c3.045,0,5.536-0.544,7.407-1.616
			c1.851-1.063,3.062-2.347,3.597-3.818c0.507-1.406,0.255-2.588-0.765-3.617C252.126,106.727,250.07,106.194,247.065,106.194z
			 M249.634,111.64c-0.417,1.14-1.145,2.033-2.166,2.651c-1.009,0.612-2.251,0.921-3.699,0.921c-1.511,0-2.543-0.32-3.155-0.984
			c-0.635-0.68-0.734-1.636-0.298-2.838c0.417-1.14,1.148-2.033,2.169-2.648c1.006-0.607,2.251-0.913,3.697-0.913
			c1.485,0,2.548,0.329,3.152,0.975C249.971,109.485,250.07,110.438,249.634,111.64z"/>
		<path class="st2" d="M272.61,107.096c-0.924-0.539-2.308-0.814-4.108-0.814c-1.443,0-2.73,0.21-3.821,0.621
			c-0.612,0.232-1.315,0.618-2.089,1.142l-0.918,0.621l0.771-2.112h-3.816l-3.589,9.902h3.969l1.996-5.519
			c0.249-0.712,0.635-1.304,1.145-1.766c0.95-0.859,2.293-1.293,3.989-1.293c1.474,0,2.353,0.332,2.687,1.021
			c0.204,0.388,0.181,0.904-0.071,1.57l-2.157,5.987h4.102l2.512-6.925C273.63,108.357,273.44,107.583,272.61,107.096z"/>
		<path class="st2" d="M286.835,106.517l-0.02-0.003c-0.578-0.153-1.315-0.232-2.188-0.232c-2.384,0-4.442,0.524-6.115,1.562
			c-1.658,1.029-2.772,2.308-3.308,3.801c-0.55,1.502-0.363,2.653,0.573,3.512c0.97,0.893,2.591,1.347,4.819,1.347
			c1.457,0,2.733-0.207,3.787-0.612c0.575-0.213,1.168-0.541,1.766-0.978l0.955-0.7l-0.658,1.797
			c-0.391,1.074-0.882,1.857-1.463,2.322c-0.879,0.717-2.231,1.083-4.02,1.083c-1.293,0-2.154-0.142-2.636-0.431
			c-0.252-0.147-0.425-0.369-0.51-0.652h-4.553c-0.04,0.734,0.42,1.293,1.4,1.704c1.222,0.51,2.988,0.771,5.247,0.771
			c3.75,0,6.526-0.584,8.246-1.735c0.972-0.649,1.698-1.636,2.16-2.925l3.49-9.613h-3.85l-0.72,2.016l-0.391-0.658
			C288.459,107.235,287.781,106.773,286.835,106.517z M288.096,111.569v0.003c-0.42,1.154-1.151,2.01-2.171,2.54
			c-0.989,0.516-2.084,0.777-3.246,0.777c-1.826,0-2.937-0.533-3.303-1.587c-0.218-0.553-0.201-1.191,0.051-1.888
			c0.286-0.768,0.709-1.42,1.256-1.942c1.032-0.981,2.444-1.477,4.193-1.477c1.315,0,2.285,0.3,2.883,0.896
			C288.397,109.522,288.513,110.424,288.096,111.569z"/>
		<polygon class="st2" points="297.44,102.787 296.768,104.618 304.144,104.618 304.073,104.811 299.863,116.456 304.263,116.456 
			308.543,104.618 315.888,104.618 316.56,102.787 		"/>
		<path class="st2" d="M327.843,108.176h0.003c-0.476-0.652-1.23-1.137-2.239-1.44c-1.052-0.32-2.333-0.485-3.801-0.485
			c-2.472,0-4.683,0.485-6.574,1.437c-1.854,0.933-3.113,2.293-3.748,4.037c-0.649,1.794-0.337,3.047,0.955,3.824
			c1.389,0.836,3.223,1.259,5.454,1.259c2.721,0,5.052-0.507,6.925-1.508c0.799-0.425,1.409-0.845,1.814-1.25h-3.983
			c-0.369,0.292-0.748,0.527-1.128,0.703c-0.78,0.343-1.692,0.516-2.713,0.516c-0.978,0-1.775-0.145-2.37-0.434
			c-1.072-0.496-1.457-1.446-1.089-2.673l0.077-0.252h12.445c0.286-0.768,0.451-1.366,0.488-1.783
			c0.088-0.751-0.077-1.386-0.507-1.945L327.843,108.176z M324.203,110.523H324.2l-0.071,0.266h-8.275l0.312-0.539
			c0.437-0.748,1.063-1.344,1.865-1.775c0.799-0.428,1.789-0.646,2.943-0.646c1.08,0,1.933,0.213,2.543,0.632
			C324.2,108.935,324.432,109.63,324.203,110.523z"/>
		<path class="st2" d="M336.699,115.212c-1.741,0-2.772-0.536-3.059-1.593c-0.156-0.536-0.079-1.242,0.221-2.098
			c0.32-0.87,0.746-1.576,1.267-2.103c0.987-0.995,2.344-1.5,4.034-1.5c1.242,0,2.067,0.249,2.517,0.765
			c0.235,0.292,0.369,0.609,0.4,0.952h4.187c0.15-1.191-0.266-2.007-1.264-2.492c-1.179-0.573-2.897-0.862-5.105-0.862
			c-2.605,0-4.856,0.499-6.684,1.48c-1.803,0.967-3.033,2.336-3.654,4.068c-0.541,1.491-0.366,2.662,0.541,3.58
			c0.933,0.941,2.829,1.417,5.633,1.417c2.835,0,5.219-0.595,7.087-1.769c0.89-0.558,1.559-1.142,1.987-1.741h-4.003
			c-0.326,0.53-0.785,0.972-1.366,1.315C338.793,115.016,337.872,115.212,336.699,115.212z"/>
		<path class="st2" d="M364.613,107.529c-0.371-0.414-0.947-0.729-1.712-0.938c-0.799-0.218-1.755-0.329-2.835-0.329
			c-0.964,0-1.942,0.119-2.903,0.357c-0.947,0.23-1.868,0.646-2.738,1.239l-0.918,0.624l2.052-5.644h-3.966l-4.938,13.618h3.969
			l1.996-5.519c0.36-0.992,0.998-1.76,1.894-2.291c0.879-0.524,1.99-0.788,3.305-0.788c1.366,0,2.191,0.306,2.517,0.935
			c0.249,0.437,0.252,1.001,0.003,1.675l-2.157,5.987h4.082l2.18-6.01c0.332-0.921,0.519-1.582,0.553-1.965
			C365.027,108.162,364.899,107.85,364.613,107.529z"/>
	</g>
	<rect x="123.142" y="34.221" class="st0" width="3.594" height="69.194"/>
</g>
<g>
</g>
<g>
</g>
<g>
</g>
<g>
</g>
<g>
</g>
<g>
</g>
<g>
</g>
<g>
</g>
<g>
</g>
<g>
</g>
<g>
</g>
<g>
</g>
<g>
</g>
<g>
</g>
<g>
</g>
</svg>
